<?xml version="1.0" standalone="no"?>
<!DOCTYPE svg PUBLIC "-//W3C//DTD SVG 20010904//EN"
 "http://www.w3.org/TR/2001/REC-SVG-20010904/DTD/svg10.dtd">
<svg version="1.0" xmlns="http://www.w3.org/2000/svg"
 width="5000.000000pt" height="5000.000000pt" viewBox="0 0 5000.000000 5000.000000"
 preserveAspectRatio="xMidYMid meet">
<metadata>
Created by potrace 1.14, written by Peter Selinger 2001-2017
</metadata>
<g transform="translate(0.000000,5000.000000) scale(0.100000,-0.100000)"
fill="#000000" stroke="none">
<path d="M35019 36265 c-3 -2 -40 -6 -84 -9 -44 -3 -89 -8 -100 -10 -11 -2
-47 -7 -80 -10 -33 -4 -114 -16 -180 -27 -161 -27 -147 -25 -259 -48 -54 -12
-108 -23 -120 -25 -11 -3 -77 -19 -146 -36 -69 -17 -132 -33 -140 -35 -82 -20
-339 -93 -350 -100 -6 -3 -18 -8 -27 -10 -54 -11 -496 -169 -588 -210 -16 -7
-75 -32 -130 -55 -181 -76 -492 -218 -692 -317 -109 -53 -200 -97 -203 -98
-31 -8 -616 -322 -768 -411 -41 -24 -76 -44 -78 -44 -2 0 -44 -25 -93 -55 -49
-30 -94 -55 -100 -55 -6 0 -11 -4 -11 -8 0 -5 -11 -14 -24 -20 -24 -10 -372
-225 -426 -262 -14 -10 -92 -62 -175 -116 -218 -144 -559 -392 -595 -433 -3
-4 -34 -31 -70 -61 -95 -80 -304 -295 -362 -372 -28 -38 -54 -68 -59 -68 -4 0
-39 7 -78 15 -39 8 -85 17 -103 20 -18 3 -49 10 -68 15 -19 4 -60 11 -90 15
-30 4 -66 9 -80 11 -14 2 -47 6 -75 9 -27 3 -59 8 -70 10 -113 24 -638 24
-840 0 -22 -3 -56 -7 -75 -9 -32 -4 -122 -18 -195 -31 -152 -27 -415 -106
-561 -167 l-80 -35 -50 76 c-105 162 -346 468 -484 615 -163 174 -354 346
-520 466 -41 30 -77 57 -80 60 -6 6 -209 141 -290 192 -66 41 -358 211 -450
261 -36 19 -108 58 -160 87 -175 95 -424 217 -600 295 -96 42 -188 83 -205 90
-225 99 -715 273 -1005 355 -97 28 -181 51 -200 55 -8 2 -31 9 -50 15 -32 9
-349 82 -410 94 -14 2 -63 12 -110 21 -115 23 -105 21 -275 50 -82 14 -177 28
-210 31 -33 4 -63 8 -67 10 -3 2 -37 7 -75 9 -37 3 -84 8 -103 10 -139 19
-615 26 -804 12 -481 -35 -830 -169 -1136 -437 -114 -99 -200 -190 -335 -351
-151 -180 -471 -639 -640 -919 -39 -63 -73 -116 -77 -118 -5 -2 -8 -8 -8 -12
0 -5 -26 -53 -59 -107 -32 -54 -60 -103 -62 -108 -2 -6 -29 -55 -60 -110 -120
-214 -165 -300 -304 -580 -217 -440 -329 -691 -447 -1000 -89 -231 -228 -647
-243 -726 -2 -11 -6 -23 -9 -27 -4 -8 -50 -174 -61 -222 -2 -8 -15 -60 -29
-115 -13 -55 -27 -111 -30 -125 -2 -14 -14 -69 -25 -124 -12 -54 -24 -110 -27
-125 -3 -14 -7 -39 -10 -56 -19 -110 -34 -206 -39 -245 -3 -25 -8 -56 -10 -70
-6 -38 -23 -187 -30 -260 -3 -36 -8 -83 -10 -105 -26 -260 -26 -797 0 -990 9
-64 36 -185 51 -227 7 -21 10 -38 7 -38 -3 0 -49 27 -102 59 -136 84 -313 173
-401 201 -130 42 -212 25 -256 -54 -66 -118 48 -272 391 -527 111 -83 259
-177 348 -220 53 -27 87 -49 87 -59 0 -8 -12 -49 -25 -90 -28 -81 -76 -268
-96 -367 -6 -35 -13 -63 -14 -63 -1 0 -33 17 -71 38 -103 56 -181 90 -289 128
-58 19 -183 48 -259 60 -22 3 -44 8 -48 10 -4 3 -57 6 -116 6 -189 2 -272 -48
-272 -163 0 -37 42 -111 74 -132 13 -9 30 -22 37 -29 27 -25 203 -118 223
-118 3 0 25 -9 49 -20 55 -25 202 -72 297 -95 41 -10 77 -19 78 -21 2 -1 -25
-36 -60 -78 -83 -99 -97 -118 -145 -201 -139 -240 -320 -656 -429 -985 -50
-148 -103 -328 -111 -375 -3 -16 -9 -38 -14 -47 -5 -10 -8 -18 -5 -18 3 0 0
-15 -5 -32 -6 -18 -12 -42 -14 -53 -2 -11 -6 -30 -9 -42 -9 -35 -15 -63 -26
-123 -11 -59 -17 -90 -25 -130 -16 -84 -52 -325 -59 -400 -28 -291 -28 -708
-1 -960 6 -59 16 -143 20 -175 2 -16 7 -55 10 -85 4 -30 8 -57 10 -60 2 -3 6
-26 10 -50 3 -25 10 -63 15 -85 5 -22 12 -56 15 -75 11 -69 77 -327 117 -460
71 -239 126 -397 218 -620 39 -96 74 -179 78 -185 4 -5 7 -12 7 -15 1 -3 15
-34 31 -70 17 -36 46 -99 64 -140 19 -41 42 -87 52 -102 10 -14 18 -32 18 -40
0 -8 4 -18 9 -23 4 -6 43 -77 86 -159 80 -155 98 -188 172 -319 24 -42 55 -97
68 -121 l24 -43 -66 -22 c-37 -12 -91 -33 -120 -47 -29 -13 -57 -24 -61 -24
-5 0 -53 -23 -108 -51 -253 -129 -467 -277 -709 -489 -90 -79 -337 -332 -416
-425 -88 -105 -99 -116 -110 -110 -23 15 -434 23 -524 11 -22 -2 -76 -8 -120
-11 -44 -4 -98 -10 -120 -15 -22 -5 -65 -12 -95 -15 -30 -4 -57 -8 -60 -10 -3
-2 -25 -6 -50 -10 -25 -4 -47 -8 -50 -10 -3 -2 -59 -15 -125 -30 -66 -15 -138
-33 -160 -40 -22 -7 -74 -22 -115 -34 -236 -70 -460 -161 -755 -306 -470 -232
-845 -466 -1185 -739 -435 -349 -1001 -958 -1316 -1416 -182 -266 -316 -479
-450 -715 -66 -118 -241 -462 -284 -560 -12 -27 -30 -68 -40 -90 -10 -22 -21
-51 -25 -65 -4 -14 -11 -29 -15 -35 -11 -14 -111 -279 -158 -420 -46 -135 -99
-312 -132 -440 -10 -40 -61 -255 -66 -280 -36 -184 -41 -209 -50 -265 -2 -19
-7 -46 -9 -60 -3 -14 -7 -47 -11 -75 -3 -27 -7 -61 -10 -75 -22 -135 -22 -637
1 -703 2 -7 7 -30 9 -52 46 -354 242 -732 478 -922 74 -60 204 -105 313 -108
63 -1 93 2 161 18 93 22 272 124 391 222 101 84 294 274 450 444 l50 54 17
-64 c9 -35 19 -71 21 -79 2 -8 4 -15 5 -15 1 0 3 -7 5 -15 8 -39 80 -212 116
-277 87 -158 225 -315 403 -458 227 -182 636 -414 1046 -593 53 -23 292 -112
370 -137 30 -10 64 -21 75 -26 11 -4 45 -15 75 -24 30 -9 82 -25 115 -35 223
-68 424 -120 680 -177 88 -19 170 -37 183 -39 12 -2 32 -6 45 -8 12 -2 99 -18
192 -34 149 -27 209 -36 290 -47 11 -2 38 -6 60 -9 39 -6 61 -8 180 -22 33 -3
67 -8 76 -9 137 -26 856 -26 1029 0 192 28 328 65 444 120 29 14 58 25 65 25
10 0 108 -73 186 -137 117 -98 555 -400 740 -512 39 -23 79 -47 90 -54 44 -27
94 -56 160 -92 39 -21 97 -53 130 -72 33 -18 148 -76 255 -129 107 -52 202
-99 212 -104 43 -24 390 -165 526 -214 375 -136 825 -253 1252 -326 33 -6 72
-12 87 -15 16 -3 48 -7 73 -11 25 -3 52 -7 60 -9 8 -2 38 -7 65 -10 28 -4 57
-8 65 -10 8 -2 38 -7 65 -10 28 -3 59 -8 70 -10 11 -2 47 -7 80 -10 33 -4 71
-8 85 -10 22 -3 53 -7 170 -20 19 -2 53 -6 75 -9 22 -3 72 -8 110 -11 39 -3
86 -8 105 -10 83 -11 467 -38 695 -49 588 -30 1591 -35 2130 -11 203 9 376 19
475 29 19 2 71 7 115 10 44 4 94 8 110 10 17 2 62 7 100 11 39 3 84 8 100 10
17 2 46 6 65 9 19 2 62 8 95 12 33 3 67 8 77 10 9 1 38 5 65 9 102 14 292 49
438 81 220 49 550 158 745 247 67 31 82 34 135 29 161 -15 4026 6 4205 22 25
3 86 7 135 11 50 4 106 8 125 10 19 2 80 6 135 9 55 4 123 9 150 11 28 3 99 7
160 10 60 3 134 7 163 11 53 5 56 4 145 -54 204 -133 428 -231 672 -293 108
-28 116 -30 145 -34 23 -3 48 -8 105 -19 11 -2 43 -7 70 -10 28 -3 66 -8 85
-11 251 -32 774 -38 1045 -11 17 2 66 6 110 10 78 6 205 21 275 32 19 3 46 7
60 9 36 5 91 15 120 20 14 3 39 7 55 10 75 10 306 62 430 97 39 11 75 21 80
22 120 32 336 105 480 163 446 179 807 395 1124 672 171 149 385 390 534 601
63 89 237 368 237 379 0 5 3 11 8 13 4 2 21 29 37 61 91 176 122 239 144 288
14 30 39 86 56 124 18 39 44 102 59 140 15 39 33 84 41 100 59 133 180 547
224 765 11 58 23 119 26 135 10 46 13 65 19 125 4 30 8 62 11 70 2 8 6 40 10
70 3 30 7 66 10 80 2 14 7 61 10 105 4 44 9 109 11 145 7 86 6 512 0 575 -3
28 -8 88 -12 135 -3 47 -8 88 -10 91 -2 3 -6 33 -9 66 -3 33 -8 71 -10 84 -3
13 -8 42 -11 64 -10 66 -10 68 -19 115 -11 67 -11 67 -35 180 -12 58 -24 116
-27 130 -14 84 -94 369 -143 514 -112 332 -231 593 -437 957 -105 185 -312
483 -486 699 -143 179 -360 413 -455 492 l-33 27 33 17 c32 17 64 34 148 82
25 14 139 82 253 151 114 69 215 131 225 136 102 61 369 241 612 414 90 63
433 321 487 365 10 8 84 69 164 134 158 129 167 137 303 257 202 179 456 431
621 616 182 204 168 187 268 324 252 343 460 715 594 1060 8 22 19 49 23 60
52 131 108 303 150 460 17 62 69 274 74 297 2 13 7 34 10 48 3 14 8 37 10 53
3 15 10 55 16 90 7 34 13 71 15 82 1 11 6 45 10 75 4 30 9 64 10 75 8 82 17
165 21 193 25 193 25 817 0 1132 -9 103 -18 198 -21 219 -3 14 -7 52 -10 85
-4 34 -8 72 -10 86 -2 14 -11 70 -19 125 -25 163 -26 172 -68 370 -46 222 -43
208 -58 265 -7 25 -14 52 -15 60 -42 191 -222 722 -320 945 -7 17 -30 71 -50
120 -45 108 -240 506 -289 590 -19 33 -45 78 -57 100 -27 50 -180 279 -243
365 -92 125 -226 265 -336 350 -10 8 -21 26 -24 40 -2 14 -10 49 -16 79 -13
56 -7 70 31 71 9 0 60 14 115 30 54 17 106 33 114 35 74 18 386 142 498 198
55 27 130 88 133 106 6 44 4 62 -14 94 -18 31 -30 40 -77 54 -81 25 -336 24
-530 -2 -19 -3 -57 -7 -85 -10 -99 -11 -219 -33 -303 -56 -10 -3 -30 53 -71
191 -32 107 -70 231 -83 276 l-26 81 64 37 c35 20 66 36 69 36 23 0 428 287
496 352 8 7 32 26 54 43 69 51 193 162 269 240 91 94 122 175 90 237 -29 55
-99 66 -210 32 -159 -49 -662 -282 -829 -384 l-65 -40 6 38 c7 40 8 58 20 257
16 243 9 910 -12 1165 -9 116 -15 186 -19 220 -2 19 -7 70 -10 112 -3 42 -8
87 -10 99 -2 11 -6 40 -9 63 -3 22 -10 75 -16 116 -7 41 -13 86 -15 100 -5 37
-30 174 -39 215 -3 11 -14 65 -25 120 -148 715 -460 1485 -938 2315 -53 91
-108 184 -124 208 -16 24 -29 45 -29 47 0 3 -16 31 -37 62 -131 208 -304 467
-315 471 -4 2 -8 10 -8 17 0 7 -3 15 -8 17 -4 2 -32 37 -62 78 -65 88 -61 84
-181 225 -88 104 -310 332 -409 421 -111 99 -341 259 -450 311 -136 66 -283
110 -455 139 -43 7 -500 15 -506 9z"/>
</g>
</svg>
